<?xml version="1.0" encoding="UTF-8" standalone="no"?>
<!DOCTYPE svg PUBLIC "-//W3C//DTD SVG 1.1//EN" "http://www.w3.org/Graphics/SVG/1.1/DTD/svg11.dtd">
<svg width="100%" height="100%" viewBox="0 0 24 24" version="1.1" xmlns="http://www.w3.org/2000/svg" xmlns:xlink="http://www.w3.org/1999/xlink" xml:space="preserve" xmlns:serif="http://www.serif.com/" style="fill-rule:evenodd;clip-rule:evenodd;stroke-linejoin:round;stroke-miterlimit:2;">
    <g>
        <rect x="0" y="0" width="24" height="24" style="fill:none;fill-rule:nonzero;"/>
    </g>
    <g transform="matrix(1.16421,0,0,1.16421,-1.6127,-2.79133)">
        <g>
            <path d="M2.81,2.81L1.39,4.22L4.08,6.91C2.78,8.6 2,10.71 2,13C2,15.76 3.12,18.26 4.93,20.07L6.35,18.65C4.9,17.21 4,15.21 4,13C4,11.25 4.57,9.65 5.51,8.34L6.94,9.77C6.35,10.7 6,11.81 6,13C6,14.66 6.68,16.15 7.76,17.24L9.18,15.82C8.45,15.1 8,14.11 8,13C8,12.37 8.15,11.77 8.41,11.24L10.02,12.85C10.02,12.9 10,12.95 10,13C10,13.55 10.23,14.05 10.59,14.41C10.95,14.77 11.45,15 12,15C12.05,15 12.1,14.99 12.16,14.98L19.78,22.6L21.19,21.19L2.81,2.81ZM17.7,14.87C17.89,14.28 18,13.65 18,13C18,9.69 15.31,7 12,7C11.35,7 10.72,7.1 10.13,7.3L11.84,9.01C11.89,9 11.95,9 12,9C14.21,9 16,10.79 16,13C16,13.05 16,13.11 15.99,13.16L17.7,14.87ZM12,5C16.42,5 20,8.58 20,13C20,14.22 19.73,15.37 19.23,16.4L20.72,17.89C21.53,16.45 22,14.78 22,13C22,7.48 17.52,3 12,3C10.22,3 8.56,3.46 7.11,4.28L8.59,5.76C9.63,5.27 10.78,5 12,5Z" style="fill:rgb(255,60,60);fill-rule:nonzero;"/>
        </g>
    </g>
</svg>
